<svg viewBox="0 0 24 22" fill="none" xmlns="http://www.w3.org/2000/svg">
<path d="M19.74 8.96984C19.6394 8.95841 19.5383 8.95256 19.4371 8.95234H16.8921L17.2624 5.1167C17.2621 4.29111 16.9286 3.49936 16.335 2.91511C15.7415 2.33086 14.9364 2.00182 14.0964 2.00017C13.3402 1.99249 12.6055 2.2473 12.0217 2.71972C11.4379 3.19213 11.0425 3.85185 10.905 4.58269C10.8309 5.12728 10.6846 5.65999 10.4698 6.16722C10.0257 7.16771 9.23163 8.5684 7.78862 8.97485C7.38816 9.0338 6.98326 9.05849 6.57847 9.04863C5.62663 9.04863 4.54246 8.97485 4.54246 8.97485C3.867 8.97749 3.22015 9.24315 2.7436 9.71361C2.26705 10.1841 1.99966 10.821 2 11.4848V19.4988C2 20.1621 2.26813 20.7983 2.74542 21.2674C3.2227 21.7365 3.87003 22 4.54501 22H18.5031C19.1311 22.0005 19.7374 21.7741 20.2067 21.3638C20.6759 20.9536 20.9754 20.3882 21.0481 19.7752L21.9808 11.7712C22.022 11.4425 21.9967 11.109 21.9062 10.79C21.8157 10.4709 21.6619 10.1726 21.4536 9.91223C21.2453 9.65185 20.9866 9.43453 20.6926 9.2728C20.3985 9.11106 20.0747 9.0081 19.74 8.96984ZM6.69426 20.1353H4.54501C4.37758 20.1312 4.21817 20.064 4.09975 19.9476C3.98133 19.8312 3.91295 19.6746 3.90875 19.51V11.4948C3.91219 11.3349 3.97639 11.1821 4.08872 11.0664C4.20105 10.9506 4.35338 10.8804 4.51574 10.8695C4.80714 10.8883 5.73352 10.9408 6.59755 10.9408C6.62937 10.9408 6.66118 10.9408 6.69299 10.9408L6.69426 20.1353ZM20.0644 11.5636L19.1444 19.5676C19.126 19.7215 19.0513 19.8636 18.9343 19.9676C18.8173 20.0716 18.6659 20.1303 18.5082 20.1328H8.59793V10.7195C10.8884 9.92656 11.8924 7.69922 12.2284 6.94635C12.5106 6.29191 12.7048 5.60412 12.8061 4.90034C12.8663 4.60699 13.0285 4.34337 13.2649 4.15467C13.5012 3.96597 13.797 3.86394 14.1015 3.86609C14.4218 3.87014 14.7288 3.9928 14.9612 4.20956C15.1935 4.42632 15.3341 4.72123 15.3549 5.03541L15.0088 8.80726L14.8217 10.8483H19.4307C19.6037 10.8532 19.7676 10.9251 19.8868 11.0483C20.006 11.1716 20.0708 11.3361 20.067 11.5061C20.0683 11.5248 20.067 11.5436 20.0644 11.5636Z" fill="#AEAEAE"/>
</svg>
