<svg viewBox="0 0 24 21" fill="none" xmlns="http://www.w3.org/2000/svg">
<path d="M3.2 20.8C2.595 20.8 2.07708 20.5846 1.64625 20.1538C1.21542 19.7229 1 19.205 1 18.6V5.4C1 4.795 1.21542 4.27708 1.64625 3.84625C2.07708 3.41542 2.595 3.2 3.2 3.2H20.8C21.405 3.2 21.9229 3.41542 22.3537 3.84625C22.7846 4.27708 23 4.795 23 5.4V18.6C23 19.205 22.7846 19.7229 22.3537 20.1538C21.9229 20.5846 21.405 20.8 20.8 20.8H3.2ZM12 13.1L3.2 7.6V18.6H20.8V7.6L12 13.1ZM12 10.9L20.8 5.4H3.2L12 10.9ZM3.2 7.6V5.4V18.6V7.6Z" fill="white"/>
</svg>
