<svg viewBox="0 0 24 22" fill="none" xmlns="http://www.w3.org/2000/svg">
<path d="M3.20001 19.7V17.5H5.40001V9.8C5.40001 8.27833 5.85835 6.92625 6.77501 5.74375C7.69168 4.56125 8.88335 3.78667 10.35 3.42V2.65C10.35 2.19167 10.5104 1.80208 10.8313 1.48125C11.1521 1.16042 11.5417 1 12 1C12.4583 1 12.8479 1.16042 13.1688 1.48125C13.4896 1.80208 13.65 2.19167 13.65 2.65V3.42C15.1167 3.78667 16.3083 4.56125 17.225 5.74375C18.1417 6.92625 18.6 8.27833 18.6 9.8V17.5H20.8V19.7H3.20001ZM12 23C11.395 23 10.8771 22.7846 10.4463 22.3537C10.0154 21.9229 9.80001 21.405 9.80001 20.8H14.2C14.2 21.405 13.9846 21.9229 13.5538 22.3537C13.1229 22.7846 12.605 23 12 23ZM7.60001 17.5H16.4V9.8C16.4 8.59 15.9692 7.55417 15.1075 6.6925C14.2458 5.83083 13.21 5.4 12 5.4C10.79 5.4 9.75418 5.83083 8.89251 6.6925C8.03085 7.55417 7.60001 8.59 7.60001 9.8V17.5Z" fill="white"/>
</svg>
