<svg width="14" height="14" viewBox="0 0 25 25" fill="none" xmlns="http://www.w3.org/2000/svg">
<path d="M18.6667 23.1111C17.7407 23.1111 16.9537 22.787 16.3056 22.1389C15.6574 21.4907 15.3333 20.7037 15.3333 19.7778C15.3333 19.6481 15.3426 19.5139 15.3611 19.375C15.3796 19.2361 15.4074 19.1111 15.4444 19L7.61111 14.4444C7.2963 14.7222 6.94444 14.9398 6.55556 15.0972C6.16667 15.2546 5.75926 15.3333 5.33333 15.3333C4.40741 15.3333 3.62037 15.0093 2.97222 14.3611C2.32407 13.713 2 12.9259 2 12C2 11.0741 2.32407 10.287 2.97222 9.63888C3.62037 8.99074 4.40741 8.66666 5.33333 8.66666C5.75926 8.66666 6.16667 8.74537 6.55556 8.90277C6.94444 9.06018 7.2963 9.27777 7.61111 9.55555L15.4444 5C15.4074 4.88889 15.3796 4.76389 15.3611 4.625C15.3426 4.48611 15.3333 4.35185 15.3333 4.22222C15.3333 3.29629 15.6574 2.50926 16.3056 1.86111C16.9537 1.21296 17.7407 0.888885 18.6667 0.888885C19.5926 0.888885 20.3796 1.21296 21.0278 1.86111C21.6759 2.50926 22 3.29629 22 4.22222C22 5.14814 21.6759 5.93518 21.0278 6.58333C20.3796 7.23148 19.5926 7.55555 18.6667 7.55555C18.2407 7.55555 17.8333 7.47685 17.4444 7.31944C17.0556 7.16203 16.7037 6.94444 16.3889 6.66666L8.55556 11.2222C8.59259 11.3333 8.62037 11.4583 8.63889 11.5972C8.65741 11.7361 8.66667 11.8704 8.66667 12C8.66667 12.1296 8.65741 12.2639 8.63889 12.4028C8.62037 12.5417 8.59259 12.6667 8.55556 12.7778L16.3889 17.3333C16.7037 17.0556 17.0556 16.838 17.4444 16.6806C17.8333 16.5231 18.2407 16.4444 18.6667 16.4444C19.5926 16.4444 20.3796 16.7685 21.0278 17.4167C21.6759 18.0648 22 18.8518 22 19.7778C22 20.7037 21.6759 21.4907 21.0278 22.1389C20.3796 22.787 19.5926 23.1111 18.6667 23.1111Z" fill="#AEAEAE"/>
</svg>
