<svg width="10" height="10" viewBox="0 0 24 22" fill="none" xmlns="http://www.w3.org/2000/svg">
<path d="M14.2653 21.4243C13.8815 21.8081 13.4059 22 12.8385 22C12.2712 22 11.7956 21.8081 11.4118 21.4243L2.60075 12.6133C2.41719 12.4297 2.27117 12.2128 2.1627 11.9625C2.05423 11.7121 2 11.4451 2 11.1615V4.0025C2 3.45181 2.19608 2.98039 2.58824 2.58824C2.98039 2.19608 3.45181 2 4.0025 2H11.1615C11.4451 2 11.7121 2.05423 11.9625 2.1627C12.2128 2.27117 12.4297 2.41719 12.6133 2.60075L21.4243 11.4368C21.8081 11.8206 22 12.292 22 12.8511C22 13.4101 21.8081 13.8815 21.4243 14.2653L14.2653 21.4243ZM12.8385 20.0225L19.9975 12.8636L11.1615 4.0025H4.0025V11.1615L12.8385 20.0225ZM6.50563 8.00751C6.92282 8.00751 7.27743 7.86149 7.56946 7.56946C7.86149 7.27743 8.00751 6.92282 8.00751 6.50563C8.00751 6.08844 7.86149 5.73383 7.56946 5.4418C7.27743 5.14977 6.92282 5.00375 6.50563 5.00375C6.08844 5.00375 5.73383 5.14977 5.4418 5.4418C5.14977 5.73383 5.00375 6.08844 5.00375 6.50563C5.00375 6.92282 5.14977 7.27743 5.4418 7.56946C5.73383 7.86149 6.08844 8.00751 6.50563 8.00751Z" fill="#AEAEAE"/>
</svg>
