<svg width="15" height="15" viewBox="0 0 24 22" fill="none" xmlns="http://www.w3.org/2000/svg">
<path fill-rule="evenodd" clip-rule="evenodd" d="M4.19999 18.5V19.8H19.8V18.5C19.8 18.2181 19.7287 17.9552 19.5841 17.7186C19.4432 17.488 19.2547 17.305 19.0208 17.175L19.0092 17.1692C17.8655 16.5973 16.7091 16.1674 15.5403 15.8805C14.3713 15.5936 13.191 15.45 12 15.45C10.8089 15.45 9.6287 15.5936 8.45972 15.8805C7.29084 16.1674 6.13435 16.5971 4.9907 17.1689L4.9793 17.1752C4.74537 17.3052 4.55678 17.488 4.41588 17.7186C4.27124 17.9552 4.19999 18.2181 4.19999 18.5ZM12 11.7C10.7052 11.7 9.60422 11.2425 8.68087 10.3191C7.75751 9.39575 7.29999 8.29479 7.29999 6.99999C7.29999 5.70519 7.75751 4.60422 8.68087 3.68087C9.60422 2.75752 10.7052 2.29999 12 2.29999C13.2948 2.29999 14.3958 2.75752 15.3191 3.68087C16.2425 4.60422 16.7 5.70519 16.7 6.99999C16.7 8.29479 16.2425 9.39575 15.3191 10.3191C14.3958 11.2425 13.2948 11.7 12 11.7ZM2.29999 21.7V18.5C2.29999 17.8461 2.46743 17.2495 2.80251 16.7038C3.13889 16.156 3.58243 15.7416 4.13604 15.4549C5.40792 14.8191 6.69853 14.3431 8.0081 14.0259C9.31826 13.7086 10.6487 13.55 12 13.55C13.3513 13.55 14.6817 13.7086 15.9919 14.0259C17.3014 14.3431 18.5921 14.8191 19.864 15.4549C20.4176 15.7416 20.8611 16.156 21.1975 16.7038C21.5325 17.2495 21.7 17.8461 21.7 18.5V21.7H2.29999ZM12 9.79999C12.7677 9.79999 13.4323 9.52314 13.9777 8.97775C14.5231 8.43235 14.8 7.76768 14.8 6.99999C14.8 6.23229 14.5231 5.56763 13.9777 5.02223C13.4323 4.47684 12.7677 4.19999 12 4.19999C11.2323 4.19999 10.5676 4.47684 10.0222 5.02223C9.47684 5.56763 9.19999 6.23229 9.19999 6.99999C9.19999 7.76768 9.47684 8.43235 10.0222 8.97775C10.5676 9.52314 11.2323 9.79999 12 9.79999Z" fill="white"/>
</svg>
