<svg width="16" height="16" viewBox="0 0 32 30" fill="none" xmlns="http://www.w3.org/2000/svg">
<path fill-rule="evenodd" clip-rule="evenodd" d="M5.59998 24.6667V26.4H26.4V24.6667C26.4 24.2909 26.305 23.9404 26.1121 23.6248C25.9243 23.3174 25.673 23.0733 25.3611 22.9L25.3455 22.8923C23.8207 22.1298 22.2788 21.5566 20.7203 21.1741C19.1617 20.7915 17.588 20.6 16 20.6C14.4119 20.6 12.8383 20.7915 11.2796 21.1741C9.72112 21.5566 8.17913 22.1295 6.65426 22.8919L6.63906 22.9004C6.32716 23.0737 6.07571 23.3174 5.88784 23.6248C5.69499 23.9404 5.59998 24.2909 5.59998 24.6667ZM16 15.6C14.2736 15.6 12.8056 14.99 11.5745 13.7589C10.3434 12.5277 9.73332 11.0598 9.73332 9.33338C9.73332 7.60697 10.3434 6.13903 11.5745 4.90789C12.8056 3.67675 14.2736 3.06671 16 3.06671C17.7264 3.06671 19.1943 3.67675 20.4255 4.90789C21.6566 6.13903 22.2666 7.60697 22.2666 9.33338C22.2666 11.0598 21.6566 12.5277 20.4255 13.7589C19.1943 14.99 17.7264 15.6 16 15.6ZM3.06665 28.9334V24.6667C3.06665 23.7949 3.28991 22.9995 3.73669 22.2718C4.18519 21.5414 4.77658 20.9889 5.51472 20.6066C7.21056 19.7589 8.93138 19.1242 10.6775 18.7013C12.4243 18.2782 14.1983 18.0667 16 18.0667C17.8017 18.0667 19.5756 18.2782 21.3225 18.7013C23.0686 19.1242 24.7894 19.7589 26.4853 20.6066C27.2234 20.9889 27.8148 21.5414 28.2633 22.2718C28.7101 22.9995 28.9333 23.7949 28.9333 24.6667V28.9334H3.06665ZM16 13.0667C17.0236 13.0667 17.9098 12.6976 18.637 11.9704C19.3642 11.2432 19.7333 10.357 19.7333 9.33338C19.7333 8.30978 19.3642 7.42356 18.637 6.69637C17.9098 5.96917 17.0236 5.60004 16 5.60004C14.9764 5.60004 14.0902 5.96917 13.363 6.69637C12.6358 7.42356 12.2666 8.30978 12.2666 9.33338C12.2666 10.357 12.6358 11.2432 13.363 11.9704C14.0902 12.6976 14.9764 13.0667 16 13.0667Z" fill="white"/>
</svg>
