<svg width="18" height="18" viewBox="0 0 21 21" xmlns="http://www.w3.org/2000/svg">
<path d="M18.1366 7.29387C18.0379 7.28246 17.9386 7.27663 17.8392 7.27641H15.34L15.7036 3.45133C15.7033 2.62801 15.3758 1.83843 14.793 1.25579C14.2101 0.673153 13.4195 0.34502 12.5946 0.343369C11.852 0.335716 11.1305 0.589823 10.5572 1.06094C9.98394 1.53205 9.59559 2.18996 9.46058 2.91878C9.38788 3.46187 9.2442 3.99312 9.03321 4.49895C8.5971 5.49669 7.81735 6.89353 6.40029 7.29886C6.00704 7.35765 5.60942 7.38227 5.21191 7.37244C4.2772 7.37244 3.21254 7.29886 3.21254 7.29886C2.54923 7.3015 1.91402 7.56642 1.44604 8.03559C0.978065 8.50475 0.715485 9.13992 0.715821 9.80193V17.7938C0.715821 18.4554 0.97913 19.0898 1.44782 19.5576C1.91652 20.0254 2.5522 20.2882 3.21504 20.2882H16.922C17.5387 20.2886 18.1341 20.0629 18.5949 19.6538C19.0557 19.2447 19.3498 18.6808 19.4212 18.0694L20.3372 10.0875C20.3776 9.75971 20.3527 9.42714 20.2638 9.10897C20.175 8.79081 20.0239 8.49332 19.8194 8.23366C19.6148 7.974 19.3609 7.75728 19.0721 7.59599C18.7833 7.4347 18.4653 7.33202 18.1366 7.29387ZM5.32563 18.4286H3.21504C3.05063 18.4245 2.89408 18.3575 2.77779 18.2414C2.6615 18.1254 2.59435 17.9691 2.59023 17.805V9.81191C2.59361 9.65245 2.65665 9.50002 2.76696 9.38462C2.87727 9.26922 3.02686 9.19919 3.1863 9.18832C3.47246 9.20703 4.38217 9.25941 5.23066 9.25941C5.2619 9.25941 5.29314 9.25941 5.32438 9.25941L5.32563 18.4286ZM18.4553 9.88051L17.5518 17.8624C17.5337 18.0159 17.4603 18.1577 17.3454 18.2614C17.2305 18.365 17.0819 18.4236 16.927 18.4261H7.19504V9.03866C9.44433 8.24796 10.4303 6.02674 10.7602 5.27594C11.0373 4.6233 11.228 3.9374 11.3275 3.23556C11.3867 2.94302 11.5459 2.68012 11.778 2.49194C12.0101 2.30376 12.3006 2.20202 12.5996 2.20415C12.9142 2.2082 13.2156 2.33052 13.4438 2.54668C13.672 2.76284 13.81 3.05694 13.8305 3.37026L13.4906 7.13174L13.3069 9.16712H17.833C18.0028 9.17202 18.1638 9.24374 18.2808 9.36663C18.3979 9.48952 18.4615 9.65362 18.4578 9.82314C18.459 9.84184 18.4578 9.86055 18.4553 9.88051Z" fill="black"/>
</svg>
