<svg width="25" height="25" viewBox="0 0 25 25" fill="none" xmlns="http://www.w3.org/2000/svg">
<path d="M20.1366 9.29387C20.0379 9.28246 19.9386 9.27663 19.8392 9.27641H17.34L17.7036 5.45133C17.7033 4.62801 17.3758 3.83843 16.793 3.25579C16.2101 2.67315 15.4195 2.34502 14.5946 2.34337C13.852 2.33572 13.1305 2.58982 12.5572 3.06094C11.9839 3.53205 11.5956 4.18996 11.4606 4.91878C11.3879 5.46187 11.2442 5.99312 11.0332 6.49895C10.5971 7.49669 9.81735 8.89352 8.40029 9.29886C8.00704 9.35765 7.60942 9.38227 7.21191 9.37244C6.2772 9.37244 5.21254 9.29886 5.21254 9.29886C4.54923 9.3015 3.91402 9.56642 3.44604 10.0356C2.97807 10.5048 2.71548 11.1399 2.71582 11.8019V19.7938C2.71582 20.4554 2.97913 21.0898 3.44782 21.5576C3.91652 22.0254 4.5522 22.2882 5.21504 22.2882H18.922C19.5387 22.2886 20.1341 22.0629 20.5949 21.6538C21.0557 21.2447 21.3498 20.6808 21.4212 20.0694L22.3372 12.0875C22.3776 11.7597 22.3527 11.4271 22.2638 11.109C22.175 10.7908 22.0239 10.4933 21.8194 10.2337C21.6148 9.974 21.3609 9.75728 21.0721 9.59599C20.7833 9.4347 20.4653 9.33202 20.1366 9.29387ZM7.32563 20.4286H5.21504C5.05063 20.4245 4.89408 20.3575 4.77779 20.2414C4.6615 20.1254 4.59435 19.9691 4.59023 19.805V11.8119C4.59361 11.6525 4.65665 11.5 4.76696 11.3846C4.87727 11.2692 5.02686 11.1992 5.1863 11.1883C5.47246 11.207 6.38217 11.2594 7.23066 11.2594C7.2619 11.2594 7.29314 11.2594 7.32438 11.2594L7.32563 20.4286ZM20.4553 11.8805L19.5518 19.8624C19.5337 20.0159 19.4603 20.1577 19.3454 20.2614C19.2305 20.365 19.0819 20.4236 18.927 20.4261H9.19504V11.0387C11.4443 10.248 12.4303 8.02674 12.7602 7.27594C13.0373 6.6233 13.228 5.9374 13.3275 5.23556C13.3867 4.94302 13.5459 4.68012 13.778 4.49194C14.0101 4.30376 14.3006 4.20202 14.5996 4.20415C14.9142 4.2082 15.2156 4.33052 15.4438 4.54668C15.672 4.76284 15.81 5.05694 15.8305 5.37026L15.4906 9.13174L15.3069 11.1671H19.833C20.0028 11.172 20.1638 11.2437 20.2808 11.3666C20.3978 11.4895 20.4615 11.6536 20.4578 11.8231C20.459 11.8418 20.4578 11.8606 20.4553 11.8805Z" fill="white"/>
</svg>
