<svg width="25" height="25" viewBox="0 0 25 25" fill="none" xmlns="http://www.w3.org/2000/svg">
<path d="M12.2889 16.1405C13.5389 16.1405 14.6014 15.703 15.4764 14.828C16.3514 13.953 16.7889 12.8905 16.7889 11.6405C16.7889 10.3905 16.3514 9.328 15.4764 8.453C14.6014 7.578 13.5389 7.1405 12.2889 7.1405C11.0389 7.1405 9.97638 7.578 9.10138 8.453C8.22638 9.328 7.78888 10.3905 7.78888 11.6405C7.78888 12.8905 8.22638 13.953 9.10138 14.828C9.97638 15.703 11.0389 16.1405 12.2889 16.1405ZM12.2889 14.3405C11.5389 14.3405 10.9014 14.078 10.3764 13.553C9.85138 13.028 9.58888 12.3905 9.58888 11.6405C9.58888 10.8905 9.85138 10.253 10.3764 9.728C10.9014 9.203 11.5389 8.9405 12.2889 8.9405C13.0389 8.9405 13.6764 9.203 14.2014 9.728C14.7264 10.253 14.9889 10.8905 14.9889 11.6405C14.9889 12.3905 14.7264 13.028 14.2014 13.553C13.6764 14.078 13.0389 14.3405 12.2889 14.3405ZM12.2889 19.1405C9.85555 19.1405 7.63888 18.4613 5.63888 17.103C3.63888 15.7447 2.18888 13.9238 1.28888 11.6405C2.18888 9.35717 3.63888 7.53634 5.63888 6.178C7.63888 4.81967 9.85555 4.1405 12.2889 4.1405C14.7222 4.1405 16.9389 4.81967 18.9389 6.178C20.9389 7.53634 22.3889 9.35717 23.2889 11.6405C22.3889 13.9238 20.9389 15.7447 18.9389 17.103C16.9389 18.4613 14.7222 19.1405 12.2889 19.1405ZM12.2889 17.1405C14.1722 17.1405 15.9014 16.6447 17.4764 15.653C19.0514 14.6613 20.2555 13.3238 21.0889 11.6405C20.2555 9.95717 19.0514 8.61967 17.4764 7.628C15.9014 6.63634 14.1722 6.1405 12.2889 6.1405C10.4055 6.1405 8.67638 6.63634 7.10138 7.628C5.52638 8.61967 4.32221 9.95717 3.48888 11.6405C4.32221 13.3238 5.52638 14.6613 7.10138 15.653C8.67638 16.6447 10.4055 17.1405 12.2889 17.1405Z" fill="white"/>
</svg>
