<svg viewBox="0 0 24 22" fill="none" xmlns="http://www.w3.org/2000/svg">
<path d="M5.53589 19.3727H6.96089L16.7359 9.59768L15.3109 8.17268L5.53589 17.9477V19.3727ZM3.53589 21.3727V17.1227L16.7359 3.94768C16.9359 3.76435 17.1567 3.62268 17.3984 3.52268C17.6401 3.42268 17.8942 3.37268 18.1609 3.37268C18.4276 3.37268 18.6859 3.42268 18.9359 3.52268C19.1859 3.62268 19.4026 3.77268 19.5859 3.97268L20.9609 5.37268C21.1609 5.55601 21.3067 5.77268 21.3984 6.02268C21.4901 6.27268 21.5359 6.52268 21.5359 6.77268C21.5359 7.03935 21.4901 7.29351 21.3984 7.53518C21.3067 7.77685 21.1609 7.99768 20.9609 8.19768L7.78589 21.3727H3.53589ZM16.0109 8.89768L15.3109 8.17268L16.7359 9.59768L16.0109 8.89768Z" fill="white"/>
</svg>
