<svg viewBox="0 0 25 25" fill="none" xmlns="http://www.w3.org/2000/svg">
<path d="M12.0806 21.6467C9.78063 21.6467 7.77646 20.8842 6.06813 19.3592C4.35979 17.8342 3.38063 15.93 3.13063 13.6467H5.18063C5.41396 15.38 6.18479 16.8133 7.49313 17.9467C8.80146 19.08 10.3306 19.6467 12.0806 19.6467C14.0306 19.6467 15.6848 18.9675 17.0431 17.6092C18.4015 16.2508 19.0806 14.5967 19.0806 12.6467C19.0806 10.6967 18.4015 9.0425 17.0431 7.68417C15.6848 6.32583 14.0306 5.64667 12.0806 5.64667C10.9306 5.64667 9.85563 5.91333 8.85563 6.44667C7.85563 6.98 7.01396 7.71333 6.33063 8.64667H9.08063V10.6467H3.08063V4.64667H5.08063V6.99667C5.93063 5.93 6.96813 5.105 8.19313 4.52167C9.41813 3.93833 10.714 3.64667 12.0806 3.64667C13.3306 3.64667 14.5015 3.88417 15.5931 4.35917C16.6848 4.83417 17.6348 5.47583 18.4431 6.28417C19.2515 7.0925 19.8931 8.0425 20.3681 9.13417C20.8431 10.2258 21.0806 11.3967 21.0806 12.6467C21.0806 13.8967 20.8431 15.0675 20.3681 16.1592C19.8931 17.2508 19.2515 18.2008 18.4431 19.0092C17.6348 19.8175 16.6848 20.4592 15.5931 20.9342C14.5015 21.4092 13.3306 21.6467 12.0806 21.6467ZM14.8806 16.8467L11.0806 13.0467V7.64667H13.0806V12.2467L16.2806 15.4467L14.8806 16.8467Z" fill="white"/>
</svg>
