<svg viewBox="0 0 24 22" fill="none" xmlns="http://www.w3.org/2000/svg">
<path d="M6.41412 22.291C5.86412 22.291 5.39329 22.0952 5.00162 21.7035C4.60996 21.3118 4.41412 20.841 4.41412 20.291V10.291C4.41412 9.741 4.60996 9.27017 5.00162 8.8785C5.39329 8.48683 5.86412 8.291 6.41412 8.291H7.41412V6.291C7.41412 4.90767 7.90162 3.7285 8.87662 2.7535C9.85162 1.7785 11.0308 1.291 12.4141 1.291C13.7975 1.291 14.9766 1.7785 15.9516 2.7535C16.9266 3.7285 17.4141 4.90767 17.4141 6.291V8.291H18.4141C18.9641 8.291 19.435 8.48683 19.8266 8.8785C20.2183 9.27017 20.4141 9.741 20.4141 10.291V20.291C20.4141 20.841 20.2183 21.3118 19.8266 21.7035C19.435 22.0952 18.9641 22.291 18.4141 22.291H6.41412ZM6.41412 20.291H18.4141V10.291H6.41412V20.291ZM12.4141 17.291C12.9641 17.291 13.435 17.0952 13.8266 16.7035C14.2183 16.3118 14.4141 15.841 14.4141 15.291C14.4141 14.741 14.2183 14.2702 13.8266 13.8785C13.435 13.4868 12.9641 13.291 12.4141 13.291C11.8641 13.291 11.3933 13.4868 11.0016 13.8785C10.61 14.2702 10.4141 14.741 10.4141 15.291C10.4141 15.841 10.61 16.3118 11.0016 16.7035C11.3933 17.0952 11.8641 17.291 12.4141 17.291ZM9.41412 8.291H15.4141V6.291C15.4141 5.45767 15.1225 4.74933 14.5391 4.166C13.9558 3.58267 13.2475 3.291 12.4141 3.291C11.5808 3.291 10.8725 3.58267 10.2891 4.166C9.70579 4.74933 9.41412 5.45767 9.41412 6.291V8.291Z" fill="white"/>
</svg>
