<svg viewBox="0 0 25 25" fill="none" xmlns="http://www.w3.org/2000/svg">
<path d="M4.53589 20.2289C3.98589 20.2289 3.51506 20.0331 3.12339 19.6414C2.73172 19.2498 2.53589 18.7789 2.53589 18.2289V6.22892C2.53589 5.67892 2.73172 5.20809 3.12339 4.81642C3.51506 4.42475 3.98589 4.22892 4.53589 4.22892H20.5359C21.0859 4.22892 21.5567 4.42475 21.9484 4.81642C22.3401 5.20809 22.5359 5.67892 22.5359 6.22892V18.2289C22.5359 18.7789 22.3401 19.2498 21.9484 19.6414C21.5567 20.0331 21.0859 20.2289 20.5359 20.2289H4.53589ZM12.5359 13.2289L4.53589 8.22892V18.2289H20.5359V8.22892L12.5359 13.2289ZM12.5359 11.2289L20.5359 6.22892H4.53589L12.5359 11.2289ZM4.53589 8.22892V6.22892V18.2289V8.22892Z" fill="white"/>
</svg>
