<svg viewBox="0 0 24 21" fill="none" xmlns="http://www.w3.org/2000/svg">
<path d="M4.70587 19.373V17.373H6.70587V10.373C6.70587 8.98967 7.12254 7.7605 7.95587 6.6855C8.7892 5.6105 9.87254 4.90633 11.2059 4.573V3.873C11.2059 3.45633 11.3517 3.10217 11.6434 2.8105C11.935 2.51883 12.2892 2.373 12.7059 2.373C13.1225 2.373 13.4767 2.51883 13.7684 2.8105C14.06 3.10217 14.2059 3.45633 14.2059 3.873V4.573C15.5392 4.90633 16.6225 5.6105 17.4559 6.6855C18.2892 7.7605 18.7059 8.98967 18.7059 10.373V17.373H20.7059V19.373H4.70587ZM12.7059 22.373C12.1559 22.373 11.685 22.1772 11.2934 21.7855C10.9017 21.3938 10.7059 20.923 10.7059 20.373H14.7059C14.7059 20.923 14.51 21.3938 14.1184 21.7855C13.7267 22.1772 13.2559 22.373 12.7059 22.373ZM8.70587 17.373H16.7059V10.373C16.7059 9.273 16.3142 8.33133 15.5309 7.548C14.7475 6.76467 13.8059 6.373 12.7059 6.373C11.6059 6.373 10.6642 6.76467 9.88087 7.548C9.09754 8.33133 8.70587 9.273 8.70587 10.373V17.373Z" fill="white"/>
</svg>
