<svg width="14" height="14" viewBox="0 0 24 22" fill="none" xmlns="http://www.w3.org/2000/svg">
<path d="M12 12.7227C10.9 12.7227 9.95833 12.331 9.175 11.5477C8.39167 10.7643 8 9.82266 8 8.72266C8 7.62266 8.39167 6.68099 9.175 5.89766C9.95833 5.11432 10.9 4.72266 12 4.72266C13.1 4.72266 14.0417 5.11432 14.825 5.89766C15.6083 6.68099 16 7.62266 16 8.72266C16 9.82266 15.6083 10.7643 14.825 11.5477C14.0417 12.331 13.1 12.7227 12 12.7227ZM4 20.7227V17.9227C4 17.356 4.14583 16.8352 4.4375 16.3602C4.72917 15.8852 5.11667 15.5227 5.6 15.2727C6.63333 14.756 7.68333 14.3685 8.75 14.1102C9.81667 13.8518 10.9 13.7227 12 13.7227C13.1 13.7227 14.1833 13.8518 15.25 14.1102C16.3167 14.3685 17.3667 14.756 18.4 15.2727C18.8833 15.5227 19.2708 15.8852 19.5625 16.3602C19.8542 16.8352 20 17.356 20 17.9227V20.7227H4ZM6 18.7227H18V17.9227C18 17.7393 17.9542 17.5727 17.8625 17.4227C17.7708 17.2727 17.65 17.156 17.5 17.0727C16.6 16.6227 15.6917 16.2852 14.775 16.0602C13.8583 15.8352 12.9333 15.7227 12 15.7227C11.0667 15.7227 10.1417 15.8352 9.225 16.0602C8.30833 16.2852 7.4 16.6227 6.5 17.0727C6.35 17.156 6.22917 17.2727 6.1375 17.4227C6.04583 17.5727 6 17.7393 6 17.9227V18.7227ZM12 10.7227C12.55 10.7227 13.0208 10.5268 13.4125 10.1352C13.8042 9.74349 14 9.27266 14 8.72266C14 8.17266 13.8042 7.70182 13.4125 7.31016C13.0208 6.91849 12.55 6.72266 12 6.72266C11.45 6.72266 10.9792 6.91849 10.5875 7.31016C10.1958 7.70182 10 8.17266 10 8.72266C10 9.27266 10.1958 9.74349 10.5875 10.1352C10.9792 10.5268 11.45 10.7227 12 10.7227Z" fill="white"/>
</svg>
