<svg viewBox="0 0 25 25" fill="none" xmlns="http://www.w3.org/2000/svg">
<path d="M12.8007 22.9347C11.4173 22.9347 10.1173 22.6722 8.90066 22.1472C7.68399 21.6222 6.62566 20.9097 5.72566 20.0097C4.82566 19.1097 4.11316 18.0514 3.58816 16.8347C3.06316 15.618 2.80066 14.318 2.80066 12.9347C2.80066 11.5514 3.06316 10.2514 3.58816 9.03469C4.11316 7.81803 4.82566 6.75969 5.72566 5.85969C6.62566 4.95969 7.68399 4.24719 8.90066 3.72219C10.1173 3.19719 11.4173 2.93469 12.8007 2.93469C14.184 2.93469 15.484 3.19719 16.7007 3.72219C17.9173 4.24719 18.9757 4.95969 19.8757 5.85969C20.7757 6.75969 21.4882 7.81803 22.0132 9.03469C22.5382 10.2514 22.8007 11.5514 22.8007 12.9347C22.8007 14.318 22.5382 15.618 22.0132 16.8347C21.4882 18.0514 20.7757 19.1097 19.8757 20.0097C18.9757 20.9097 17.9173 21.6222 16.7007 22.1472C15.484 22.6722 14.184 22.9347 12.8007 22.9347ZM11.8007 20.8847V18.9347C11.2507 18.9347 10.7798 18.7389 10.3882 18.3472C9.99649 17.9555 9.80066 17.4847 9.80066 16.9347V15.9347L5.00066 11.1347C4.95066 11.4347 4.90483 11.7347 4.86316 12.0347C4.82149 12.3347 4.80066 12.6347 4.80066 12.9347C4.80066 14.9514 5.46316 16.718 6.78816 18.2347C8.11316 19.7514 9.78399 20.6347 11.8007 20.8847ZM18.7007 18.3347C19.034 17.968 19.334 17.5722 19.6007 17.1472C19.8673 16.7222 20.0882 16.2805 20.2632 15.8222C20.4382 15.3639 20.5715 14.893 20.6632 14.4097C20.7548 13.9264 20.8007 13.4347 20.8007 12.9347C20.8007 11.3014 20.3465 9.80969 19.4382 8.45969C18.5298 7.10969 17.3173 6.13469 15.8007 5.53469V5.93469C15.8007 6.48469 15.6048 6.95553 15.2132 7.34719C14.8215 7.73886 14.3507 7.93469 13.8007 7.93469H11.8007V9.93469C11.8007 10.218 11.7048 10.4555 11.5132 10.6472C11.3215 10.8389 11.084 10.9347 10.8007 10.9347H8.80066V12.9347H14.8007C15.084 12.9347 15.3215 13.0305 15.5132 13.2222C15.7048 13.4139 15.8007 13.6514 15.8007 13.9347V16.9347H16.8007C17.234 16.9347 17.6257 17.0639 17.9757 17.3222C18.3257 17.5805 18.5673 17.918 18.7007 18.3347Z" fill="white"/>
</svg>
