<svg width="15" viewBox="0 0 25 25" fill="none" xmlns="http://www.w3.org/2000/svg">
<path d="M15.8359 17.5666L17.2359 16.1666L13.5359 12.4666V7.86658H11.5359V13.2666L15.8359 17.5666ZM12.5359 22.8666C11.1526 22.8666 9.85256 22.6041 8.63589 22.0791C7.41922 21.5541 6.36089 20.8416 5.46089 19.9416C4.56089 19.0416 3.84839 17.9832 3.32339 16.7666C2.79839 15.5499 2.53589 14.2499 2.53589 12.8666C2.53589 11.4832 2.79839 10.1832 3.32339 8.96658C3.84839 7.74991 4.56089 6.69158 5.46089 5.79158C6.36089 4.89158 7.41922 4.17908 8.63589 3.65408C9.85256 3.12908 11.1526 2.86658 12.5359 2.86658C13.9192 2.86658 15.2192 3.12908 16.4359 3.65408C17.6526 4.17908 18.7109 4.89158 19.6109 5.79158C20.5109 6.69158 21.2234 7.74991 21.7484 8.96658C22.2734 10.1832 22.5359 11.4832 22.5359 12.8666C22.5359 14.2499 22.2734 15.5499 21.7484 16.7666C21.2234 17.9832 20.5109 19.0416 19.6109 19.9416C18.7109 20.8416 17.6526 21.5541 16.4359 22.0791C15.2192 22.6041 13.9192 22.8666 12.5359 22.8666ZM12.5359 20.8666C14.7526 20.8666 16.6401 20.0874 18.1984 18.5291C19.7567 16.9707 20.5359 15.0832 20.5359 12.8666C20.5359 10.6499 19.7567 8.76241 18.1984 7.20408C16.6401 5.64574 14.7526 4.86658 12.5359 4.86658C10.3192 4.86658 8.43172 5.64574 6.87339 7.20408C5.31506 8.76241 4.53589 10.6499 4.53589 12.8666C4.53589 15.0832 5.31506 16.9707 6.87339 18.5291C8.43172 20.0874 10.3192 20.8666 12.5359 20.8666Z" fill="white"/>
</svg>
