<svg viewBox="0 0 24 21" fill="none" xmlns="http://www.w3.org/2000/svg">
<path d="M20.0963 21.291L13.7963 14.991C13.2963 15.391 12.7213 15.7077 12.0713 15.941C11.4213 16.1743 10.7296 16.291 9.99628 16.291C8.17961 16.291 6.64211 15.6618 5.38378 14.4035C4.12544 13.1452 3.49628 11.6077 3.49628 9.791C3.49628 7.97433 4.12544 6.43683 5.38378 5.1785C6.64211 3.92017 8.17961 3.291 9.99628 3.291C11.8129 3.291 13.3504 3.92017 14.6088 5.1785C15.8671 6.43683 16.4963 7.97433 16.4963 9.791C16.4963 10.5243 16.3796 11.216 16.1463 11.866C15.9129 12.516 15.5963 13.091 15.1963 13.591L21.4963 19.891L20.0963 21.291ZM9.99628 14.291C11.2463 14.291 12.3088 13.8535 13.1838 12.9785C14.0588 12.1035 14.4963 11.041 14.4963 9.791C14.4963 8.541 14.0588 7.4785 13.1838 6.6035C12.3088 5.7285 11.2463 5.291 9.99628 5.291C8.74628 5.291 7.68378 5.7285 6.80878 6.6035C5.93378 7.4785 5.49628 8.541 5.49628 9.791C5.49628 11.041 5.93378 12.1035 6.80878 12.9785C7.68378 13.8535 8.74628 14.291 9.99628 14.291Z" fill="white"/>
</svg>
