<svg width="15" viewBox="0 0 25 25" fill="none" xmlns="http://www.w3.org/2000/svg">
<path d="M14.8278 21.9756C14.4444 22.3589 13.9694 22.5506 13.4028 22.5506C12.8361 22.5506 12.3611 22.3589 11.9778 21.9756L3.17776 13.1756C2.99443 12.9922 2.84859 12.7756 2.74026 12.5256C2.63193 12.2756 2.57776 12.0089 2.57776 11.7256V4.57556C2.57776 4.02556 2.77359 3.55473 3.16526 3.16306C3.55693 2.77139 4.02776 2.57556 4.57776 2.57556H11.7278C12.0111 2.57556 12.2778 2.62973 12.5278 2.73806C12.7778 2.84639 12.9944 2.99223 13.1778 3.17556L21.9778 12.0006C22.3611 12.3839 22.5528 12.8547 22.5528 13.4131C22.5528 13.9714 22.3611 14.4422 21.9778 14.8256L14.8278 21.9756ZM13.4028 20.5756L20.5528 13.4256L11.7278 4.57556H4.57776V11.7256L13.4028 20.5756ZM7.07776 8.57556C7.49443 8.57556 7.84859 8.42973 8.14026 8.13806C8.43193 7.84639 8.57776 7.49223 8.57776 7.07556C8.57776 6.65889 8.43193 6.30473 8.14026 6.01306C7.84859 5.72139 7.49443 5.57556 7.07776 5.57556C6.66109 5.57556 6.30693 5.72139 6.01526 6.01306C5.72359 6.30473 5.57776 6.65889 5.57776 7.07556C5.57776 7.49223 5.72359 7.84639 6.01526 8.13806C6.30693 8.42973 6.66109 8.57556 7.07776 8.57556Z" fill="white"/>
</svg>
