<svg width="14" height="14" viewBox="0 0 25 25" fill="none" xmlns="http://www.w3.org/2000/svg">
<path d="M18.5359 22.7257C17.7026 22.7257 16.9942 22.434 16.4109 21.8507C15.8276 21.2673 15.5359 20.559 15.5359 19.7257C15.5359 19.609 15.5442 19.4882 15.5609 19.3632C15.5776 19.2382 15.6026 19.1257 15.6359 19.0257L8.58589 14.9257C8.30256 15.1757 7.98589 15.3715 7.63589 15.5132C7.28589 15.6548 6.91922 15.7257 6.53589 15.7257C5.70256 15.7257 4.99422 15.434 4.41089 14.8507C3.82756 14.2673 3.53589 13.559 3.53589 12.7257C3.53589 11.8923 3.82756 11.184 4.41089 10.6007C4.99422 10.0173 5.70256 9.72568 6.53589 9.72568C6.91922 9.72568 7.28589 9.79651 7.63589 9.93818C7.98589 10.0798 8.30256 10.2757 8.58589 10.5257L15.6359 6.42568C15.6026 6.32568 15.5776 6.21318 15.5609 6.08818C15.5442 5.96318 15.5359 5.84234 15.5359 5.72568C15.5359 4.89234 15.8276 4.18401 16.4109 3.60068C16.9942 3.01734 17.7026 2.72568 18.5359 2.72568C19.3692 2.72568 20.0776 3.01734 20.6609 3.60068C21.2442 4.18401 21.5359 4.89234 21.5359 5.72568C21.5359 6.55901 21.2442 7.26734 20.6609 7.85068C20.0776 8.43401 19.3692 8.72568 18.5359 8.72568C18.1526 8.72568 17.7859 8.65484 17.4359 8.51318C17.0859 8.37151 16.7692 8.17568 16.4859 7.92568L9.43589 12.0257C9.46922 12.1257 9.49422 12.2382 9.51089 12.3632C9.52756 12.4882 9.53589 12.609 9.53589 12.7257C9.53589 12.8423 9.52756 12.9632 9.51089 13.0882C9.49422 13.2132 9.46922 13.3257 9.43589 13.4257L16.4859 17.5257C16.7692 17.2757 17.0859 17.0798 17.4359 16.9382C17.7859 16.7965 18.1526 16.7257 18.5359 16.7257C19.3692 16.7257 20.0776 17.0173 20.6609 17.6007C21.2442 18.184 21.5359 18.8923 21.5359 19.7257C21.5359 20.559 21.2442 21.2673 20.6609 21.8507C20.0776 22.434 19.3692 22.7257 18.5359 22.7257ZM18.5359 6.72568C18.8192 6.72568 19.0567 6.62984 19.2484 6.43818C19.4401 6.24651 19.5359 6.00901 19.5359 5.72568C19.5359 5.44234 19.4401 5.20484 19.2484 5.01318C19.0567 4.82151 18.8192 4.72568 18.5359 4.72568C18.2526 4.72568 18.0151 4.82151 17.8234 5.01318C17.6317 5.20484 17.5359 5.44234 17.5359 5.72568C17.5359 6.00901 17.6317 6.24651 17.8234 6.43818C18.0151 6.62984 18.2526 6.72568 18.5359 6.72568ZM6.53589 13.7257C6.81922 13.7257 7.05672 13.6298 7.24839 13.4382C7.44006 13.2465 7.53589 13.009 7.53589 12.7257C7.53589 12.4423 7.44006 12.2048 7.24839 12.0132C7.05672 11.8215 6.81922 11.7257 6.53589 11.7257C6.25256 11.7257 6.01506 11.8215 5.82339 12.0132C5.63172 12.2048 5.53589 12.4423 5.53589 12.7257C5.53589 13.009 5.63172 13.2465 5.82339 13.4382C6.01506 13.6298 6.25256 13.7257 6.53589 13.7257ZM18.5359 20.7257C18.8192 20.7257 19.0567 20.6298 19.2484 20.4382C19.4401 20.2465 19.5359 20.009 19.5359 19.7257C19.5359 19.4423 19.4401 19.2048 19.2484 19.0132C19.0567 18.8215 18.8192 18.7257 18.5359 18.7257C18.2526 18.7257 18.0151 18.8215 17.8234 19.0132C17.6317 19.2048 17.5359 19.4423 17.5359 19.7257C17.5359 20.009 17.6317 20.2465 17.8234 20.4382C18.0151 20.6298 18.2526 20.7257 18.5359 20.7257Z" fill="white"/>
</svg>