<svg viewBox="0 0 25 25" fill="none" xmlns="http://www.w3.org/2000/svg">
<path d="M1.53589 21.0786L12.5359 2.07861L23.5359 21.0786H1.53589ZM4.98589 19.0786H20.0859L12.5359 6.07861L4.98589 19.0786ZM12.5359 18.0786C12.8192 18.0786 13.0567 17.9828 13.2484 17.7911C13.4401 17.5994 13.5359 17.3619 13.5359 17.0786C13.5359 16.7953 13.4401 16.5578 13.2484 16.3661C13.0567 16.1744 12.8192 16.0786 12.5359 16.0786C12.2526 16.0786 12.0151 16.1744 11.8234 16.3661C11.6317 16.5578 11.5359 16.7953 11.5359 17.0786C11.5359 17.3619 11.6317 17.5994 11.8234 17.7911C12.0151 17.9828 12.2526 18.0786 12.5359 18.0786ZM11.5359 15.0786H13.5359V10.0786H11.5359V15.0786Z" fill="white"/>
</svg>
